<svg width="12" height="12" viewBox="0 0 12 12" fill="none" xmlns="http://www.w3.org/2000/svg">
<circle cx="6" cy="3" r="3" fill="#181818"/>
<path d="M11 13C11.5523 13 12.0085 12.5492 11.9169 12.0046C11.842 11.5594 11.7169 11.123 11.5433 10.7039C11.2417 9.97595 10.7998 9.31451 10.2426 8.75736C9.68549 8.20021 9.02405 7.75825 8.2961 7.45672C7.56815 7.15519 6.78793 7 6 7C5.21207 7 4.43185 7.15519 3.7039 7.45672C2.97595 7.75825 2.31451 8.20021 1.75736 8.75736C1.20021 9.31451 0.758251 9.97595 0.456723 10.7039C0.283132 11.123 0.158042 11.5594 0.0831416 12.0046C-0.00848121 12.5492 0.447715 13 1 13L6 13H11Z" fill="#181818"/>
</svg>
